<?xml version="1.0" encoding="UTF-8"?>
<svg width="400" height="800" viewBox="0 0 400 800" fill="none" xmlns="http://www.w3.org/2000/svg">
  <!-- Phone frame -->
  <rect x="10" y="10" width="380" height="780" rx="40" fill="#111827" />
  <rect x="20" y="20" width="360" height="760" rx="32" fill="#F9FAFB" />
  
  <!-- Status bar -->
  <rect x="20" y="20" width="360" height="40" rx="32" fill="#FFFFFF" />
  <circle cx="50" cy="40" r="5" fill="#111827" />
  <rect x="65" y="35" width="40" height="10" rx="5" fill="#111827" />
  <rect x="300" y="35" width="30" height="10" rx="5" fill="#111827" />
  <rect x="340" y="35" width="20" height="10" rx="5" fill="#111827" />
  
  <!-- App header -->
  <rect x="20" y="60" width="360" height="60" rx="0" fill="#FFFFFF" />
  <rect x="40" y="80" width="30" height="30" rx="5" fill="#6366F1" />
  <text x="80" y="100" font-family="Arial" font-size="18" font-weight="bold" fill="#111827">Wardrobe App</text>
  <circle cx="340" cy="90" r="15" fill="#F3F4F6" />
  
  <!-- Main content area -->
  <rect x="20" y="120" width="360" height="660" rx="0" fill="#FFFFFF" />
  
  <!-- Wardrobe items section -->
  <text x="40" y="150" font-family="Arial" font-size="20" font-weight="bold" fill="#111827">My Wardrobe</text>
  
  <!-- Category filters -->
  <rect x="40" y="170" width="70" height="30" rx="15" fill="#6366F1" />
  <text x="55" y="190" font-family="Arial" font-size="12" fill="#FFFFFF">All</text>
  
  <rect x="120" y="170" width="70" height="30" rx="15" fill="#F3F4F6" />
  <text x="130" y="190" font-family="Arial" font-size="12" fill="#4B5563">Tops</text>
  
  <rect x="200" y="170" width="70" height="30" rx="15" fill="#F3F4F6" />
  <text x="205" y="190" font-family="Arial" font-size="12" fill="#4B5563">Bottoms</text>
  
  <rect x="280" y="170" width="70" height="30" rx="15" fill="#F3F4F6" />
  <text x="290" y="190" font-family="Arial" font-size="12" fill="#4B5563">Shoes</text>
  
  <!-- Clothing items grid -->
  <!-- Row 1 -->
  <rect x="40" y="220" width="100" height="120" rx="10" fill="#F9FAFB" />
  <rect x="50" y="230" width="80" height="80" rx="5" fill="#DC2626" />
  <text x="60" y="330" font-family="Arial" font-size="12" fill="#111827">Red Sweater</text>
  
  <rect x="150" y="220" width="100" height="120" rx="10" fill="#F9FAFB" />
  <rect x="160" y="230" width="80" height="80" rx="5" fill="#1E3A8A" />
  <text x="170" y="330" font-family="Arial" font-size="12" fill="#111827">Blue Jacket</text>
  
  <rect x="260" y="220" width="100" height="120" rx="10" fill="#F9FAFB" />
  <rect x="270" y="230" width="80" height="80" rx="5" fill="#F3F4F6" />
  <text x="280" y="330" font-family="Arial" font-size="12" fill="#111827">White Shirt</text>
  
  <!-- Row 2 -->
  <rect x="40" y="350" width="100" height="120" rx="10" fill="#F9FAFB" />
  <rect x="50" y="360" width="80" height="80" rx="5" fill="#111827" />
  <text x="55" y="460" font-family="Arial" font-size="12" fill="#111827">Black Pants</text>
  
  <rect x="150" y="350" width="100" height="120" rx="10" fill="#F9FAFB" />
  <rect x="160" y="360" width="80" height="80" rx="5" fill="#4B5563" />
  <text x="165" y="460" font-family="Arial" font-size="12" fill="#111827">Gray Skirt</text>
  
  <rect x="260" y="350" width="100" height="120" rx="10" fill="#F9FAFB" />
  <rect x="270" y="360" width="80" height="80" rx="5" fill="#10B981" />
  <text x="275" y="460" font-family="Arial" font-size="12" fill="#111827">Green Dress</text>
  
  <!-- AI Assistant button -->
  <circle cx="340" cy="640" r="30" fill="#6366F1" />
  <text x="330" y="645" font-family="Arial" font-size="20" fill="#FFFFFF">+</text>
  
  <!-- Bottom navigation -->
  <rect x="20" y="700" width="360" height="80" rx="0" fill="#FFFFFF" />
  <rect x="20" y="700" width="360" height="1" fill="#E5E7EB" />
  
  <circle cx="80" cy="740" r="5" fill="#6366F1" />
  <text x="60" y="760" font-family="Arial" font-size="12" fill="#6366F1">Home</text>
  
  <circle cx="160" cy="740" r="5" fill="#9CA3AF" />
  <text x="135" y="760" font-family="Arial" font-size="12" fill="#9CA3AF">Calendar</text>
  
  <circle cx="240" cy="740" r="5" fill="#9CA3AF" />
  <text x="225" y="760" font-family="Arial" font-size="12" fill="#9CA3AF">AI</text>
  
  <circle cx="320" cy="740" r="5" fill="#9CA3AF" />
  <text x="300" y="760" font-family="Arial" font-size="12" fill="#9CA3AF">Profile</text>
</svg>
