<svg preserveAspectRatio="none" viewBox="344.064 389.12 1355.776 1253.376" style="max-height: 500px" xmlns="http://www.w3.org/2000/svg" version="1.1" width="1355.776" height="1253.376">
<defs>
	<linearGradient y2="1031.53" x2="1039.06" y1="1364.38" x1="1011.07" gradientUnits="userSpaceOnUse" id="Gradient1">
		<stop stop-color="rgb(151,69,188)" stop-opacity="1" offset="0" class="stop0"/>
		<stop stop-color="rgb(172,108,209)" stop-opacity="1" offset="1" class="stop1"/>
	</linearGradient>
</defs>
<path d="M 1498.49 640.154 C 1512.3 642.8 1524.64 646.357 1538.03 649.539 C 1576.06 658.57 1602.58 671.303 1625.39 704.662 C 1644.57 732.832 1651.83 767.448 1645.57 800.949 C 1638.32 838.681 1616.1 868.313 1582.4 885.68 C 1578.06 887.918 1572.57 890.625 1568.53 893.06 C 1670.66 894.715 1690.64 1057.26 1567.94 1074.53 C 1582.11 1076.96 1593.31 1078.99 1606.79 1084.51 C 1660.16 1106.36 1687.91 1160.28 1677.96 1216.42 C 1672.57 1248.2 1654.45 1276.41 1627.77 1294.52 C 1611.69 1305.63 1596.73 1310.72 1577.85 1314.62 C 1594.94 1315.84 1605.21 1317.25 1621.18 1323.42 C 1692.39 1350.95 1700.31 1450.69 1643.95 1497.14 C 1628.39 1510 1609.25 1517.75 1589.12 1519.35 C 1568.77 1520.97 1533.69 1519.92 1512.23 1519.88 L 1377.1 1519.82 L 945.665 1519.8 L 622.5 1519.54 L 526.394 1519.19 C 514.58 1519.14 494.189 1520.47 483.242 1518.85 C 427.896 1510.65 388.899 1456.88 396.909 1401.69 C 404.822 1351.05 436.815 1325.89 484.156 1315.06 C 461.22 1310.53 392.248 1322.48 377.583 1309.07 C 369.449 1301.63 367.347 1289.46 367.039 1278.96 C 366.558 1262.58 363.811 1233.78 376.386 1221.29 C 380.362 1217.35 386.114 1215.97 391.504 1215.23 C 404.906 1213.39 434.328 1214.39 448.907 1214.43 C 440.756 1203.57 441.341 1197.2 450.714 1188 C 404.676 1187.45 361.952 1200.57 366.87 1134.66 C 367.72 1123.26 365.73 1112.58 368.643 1100.57 C 369.894 1095.4 372.183 1090.54 375.372 1086.29 C 387.55 1070.23 401.661 1074.98 418.764 1073.82 C 438.037 1072.51 465.037 1076.59 483.338 1073.71 C 478.722 1070.42 474.751 1070.18 469.174 1068.74 C 447.919 1063.25 431.752 1048.48 421.067 1029.62 C 409.167 1008.17 406.316 982.865 413.145 959.307 C 418.514 940.774 430.932 921.304 447.064 910.364 C 453.57 905.953 461.271 904.532 468.076 900.451 C 475.004 902.929 750.597 901.012 779.766 900.914 C 770.151 908.463 727.59 938.497 726.262 947.647 C 725.272 954.463 730.775 960.001 734.759 964.825 C 744.929 975.19 754.023 986.957 764.449 997.025 C 785.579 1020.9 811.649 1050.85 833.229 1073.47 C 867.072 1110.68 900.66 1148.11 933.99 1185.77 C 943.319 1195.35 952.075 1205.56 960.899 1215.61 C 965.992 1222.28 969.395 1225.65 975.837 1230.79 C 980.485 1231.44 984.606 1231.41 989.28 1231.5 C 995.326 1226.87 1000.63 1220.35 1005.91 1214.67 C 1013.24 1205.79 1022.53 1195.8 1030.26 1187.05 C 1062.42 1149.66 1095.84 1111.09 1127.35 1073.25 C 1147.73 1051.16 1173.17 1019.69 1192.74 996.246 C 1201.73 986.467 1209.76 975.531 1218.77 965.594 C 1222.18 961.141 1226.52 956.026 1230.28 951.835 C 1245.03 935.391 1258.81 916.781 1273.95 900.788 C 1301.28 866.503 1336 828.631 1364.81 794.379 C 1370.85 787.395 1380.87 774.809 1387.02 768.776 C 1408.92 741.602 1435.55 713.523 1457.98 686.25 C 1464.37 678.479 1493 644.997 1498.49 640.154 z" fill="url(#Gradient1)" transform="translate(0,0)"/>
<path d="M 484.156 1315.06 C 509.318 1315.94 539.806 1315.06 565.371 1315.05 L 723.273 1315.07 L 1209.04 1315.05 L 1464.78 1315.08 L 1539.15 1315.11 C 1547.24 1315.12 1570.8 1315.6 1577.85 1314.62 C 1594.94 1315.84 1605.21 1317.25 1621.18 1323.42 C 1692.39 1350.95 1700.31 1450.69 1643.95 1497.14 C 1628.39 1510 1609.25 1517.75 1589.12 1519.35 C 1568.77 1520.97 1533.69 1519.92 1512.23 1519.88 L 1377.1 1519.82 L 945.665 1519.8 L 622.5 1519.54 L 526.394 1519.19 C 514.58 1519.14 494.189 1520.47 483.242 1518.85 C 427.896 1510.65 388.899 1456.88 396.909 1401.69 C 404.822 1351.05 436.815 1325.89 484.156 1315.06 z" fill="rgb(86,17,113)" transform="translate(0,0)"/>
<path d="M 1498.49 640.154 C 1512.3 642.8 1524.64 646.357 1538.03 649.539 C 1576.06 658.57 1602.58 671.303 1625.39 704.662 C 1644.57 732.832 1651.83 767.448 1645.57 800.949 C 1638.32 838.681 1616.1 868.313 1582.4 885.68 C 1578.06 887.918 1572.57 890.625 1568.53 893.06 C 1670.66 894.715 1690.64 1057.26 1567.94 1074.53 C 1561.06 1073.73 1543.8 1074.07 1536.15 1074.05 L 1474.37 1074.04 L 1239.25 1074.03 L 1169.49 1074.02 C 1157.33 1074.02 1138.98 1074.56 1127.35 1073.25 C 1147.73 1051.16 1173.17 1019.69 1192.74 996.246 C 1201.73 986.467 1209.76 975.531 1218.77 965.594 C 1222.18 961.141 1226.52 956.026 1230.28 951.835 C 1245.03 935.391 1258.81 916.781 1273.95 900.788 C 1301.28 866.503 1336 828.631 1364.81 794.379 C 1370.85 787.395 1380.87 774.809 1387.02 768.776 C 1408.92 741.602 1435.55 713.523 1457.98 686.25 C 1464.37 678.479 1493 644.997 1498.49 640.154 z" fill="rgb(135,57,173)" transform="translate(0,0)"/>
<path d="M 1498.49 640.154 C 1512.3 642.8 1524.64 646.357 1538.03 649.539 C 1576.06 658.57 1602.58 671.303 1625.39 704.662 C 1644.57 732.832 1651.83 767.448 1645.57 800.949 C 1638.32 838.681 1616.1 868.313 1582.4 885.68 C 1578.06 887.918 1572.57 890.625 1568.53 893.06 C 1548.39 903.445 1503.01 901.279 1479.75 901.271 L 1387.29 901.209 L 1314.99 901.252 C 1303.92 901.275 1284.36 901.831 1273.95 900.788 C 1301.28 866.503 1336 828.631 1364.81 794.379 C 1370.85 787.395 1380.87 774.809 1387.02 768.776 C 1408.92 741.602 1435.55 713.523 1457.98 686.25 C 1464.37 678.479 1493 644.997 1498.49 640.154 z" fill="rgb(192,131,223)" transform="translate(0,0)"/>
<path d="M 1364.81 794.379 C 1370.85 787.395 1380.87 774.809 1387.02 768.776 L 1475.36 768.941 C 1486.84 768.918 1501.95 767.287 1513.07 768.976 C 1516.22 769.454 1519 771.144 1521.22 773.384 C 1523.61 775.791 1525.07 778.524 1524.68 782.042 C 1524.23 786.18 1521.36 790.092 1517.9 792.281 C 1510.75 796.809 1385.57 793.825 1364.81 794.379 z" fill="rgb(135,57,173)" transform="translate(0,0)"/>
<path d="M 1192.74 996.246 C 1201.73 986.467 1209.76 975.531 1218.77 965.594 C 1250.43 967.056 1285.51 966.258 1317.45 966.188 L 1454.96 966.327 L 1505.38 966.199 C 1515.29 966.162 1531.53 965.6 1540.61 967.326 C 1552.79 978.003 1553.63 986.194 1540.32 996.799 C 1460.63 998.566 1376.12 996.989 1296 997.067 L 1226.14 997.077 C 1219.92 997.07 1197.79 997.39 1192.74 996.246 z" fill="rgb(86,17,113)" transform="translate(0,0)"/>
<path d="M 468.076 900.451 C 475.004 902.929 750.597 901.012 779.766 900.914 C 770.151 908.463 727.59 938.497 726.262 947.647 C 725.272 954.463 730.775 960.001 734.759 964.825 C 744.929 975.19 754.023 986.957 764.449 997.025 C 785.579 1020.9 811.649 1050.85 833.229 1073.47 C 803.565 1073.9 483.9 1073.37 483.338 1073.71 C 478.722 1070.42 474.751 1070.18 469.174 1068.74 C 447.919 1063.25 431.752 1048.48 421.067 1029.62 C 409.167 1008.17 406.316 982.865 413.145 959.307 C 418.514 940.774 430.932 921.304 447.064 910.364 C 453.57 905.953 461.271 904.532 468.076 900.451 z" fill="rgb(135,57,173)" transform="translate(0,0)"/>
<path d="M 734.759 964.825 C 744.929 975.19 754.023 986.957 764.449 997.025 L 604.737 997.02 C 593.09 997.028 525.855 998.267 520.563 995.231 C 516.706 992.968 513.96 989.207 512.979 984.844 C 507.787 961.859 542.641 966.104 555.483 965.99 C 563.357 965.92 571.276 966.009 579.153 966.023 L 697.07 966.246 C 705.242 966.25 727.816 967.052 734.759 964.825 z" fill="rgb(86,17,113)" transform="translate(0,0)"/>
<path d="M 483.338 1073.71 C 483.9 1073.37 803.565 1073.9 833.229 1073.47 C 867.072 1110.68 900.66 1148.11 933.99 1185.77 C 923.779 1189.9 495.289 1187.41 450.714 1188 C 404.676 1187.45 361.952 1200.57 366.87 1134.66 C 367.72 1123.26 365.73 1112.58 368.643 1100.57 C 369.894 1095.4 372.183 1090.54 375.372 1086.29 C 387.55 1070.23 401.661 1074.98 418.764 1073.82 C 438.037 1072.51 465.037 1076.59 483.338 1073.71 z" fill="rgb(192,131,223)" transform="translate(0,0)"/>
<path d="M 1005.91 1214.67 C 1013.24 1205.79 1022.53 1195.8 1030.26 1187.05 C 1072.37 1187.5 1114.48 1187.61 1156.59 1187.38 L 1386.87 1187.3 L 1483.43 1187.28 C 1500.48 1187.28 1517.72 1186.92 1534.68 1187.73 C 1539.54 1187.96 1546.28 1189.26 1548.52 1193.55 C 1563.24 1221.76 1511.1 1215.85 1501.78 1215.81 L 1437.01 1215.69 L 1223.57 1215.65 L 1084.9 1215.8 C 1066.59 1215.84 1023.16 1216.72 1005.91 1214.67 z" fill="rgb(135,57,173)" transform="translate(0,0)"/>
<path d="M 933.99 1185.77 C 943.319 1195.35 952.075 1205.56 960.899 1215.61 C 911.705 1214.31 855.596 1215.66 805.991 1215.78 L 559.343 1215.52 C 542.759 1215.5 458.658 1217.26 448.907 1214.43 C 440.756 1203.57 441.341 1197.2 450.714 1188 C 495.289 1187.41 923.779 1189.9 933.99 1185.77 z" fill="rgb(135,57,173)" transform="translate(0,0)"/>
<path d="M 1212.17 528.711 C 1222.27 529.685 1298.6 579.027 1314.69 587.105 C 1344.94 593.547 1376.51 603.991 1406.71 610.76 C 1353.55 664.257 1299.65 717.017 1245.02 769.024 C 1238.71 775.239 1224.3 790.205 1218.15 795.25 C 1182.53 831.456 1144.62 865.425 1109.35 901.065 L 1040.77 966.745 C 1029.69 977.058 1018.37 988.39 1007.33 998.394 C 999.214 1006.57 990.903 1014.55 982.402 1022.32 L 960.009 998.292 C 949.848 987.772 939.788 977.154 929.832 966.441 C 910.596 947.46 886.329 921.334 867.893 901.41 C 859.055 893.641 838.221 865.459 829.983 865.638 C 821.872 865.814 788.723 894.403 779.766 900.914 C 750.597 901.012 475.004 902.929 468.076 900.451 C 448.394 898.177 420.586 905.06 404.753 890.6 C 384.971 873.095 386.068 822.035 403.377 803.668 C 418.009 788.141 458.937 795.17 479.959 794.577 C 468.485 785.608 467.611 779.587 477.455 769.142 C 459.653 769.248 438.929 770.401 423.529 760.527 C 399.97 745.423 393.168 705.847 408.324 682.659 C 422.23 661.383 444.101 659.251 466.354 653.817 C 491.166 647.716 516.026 641.815 540.933 636.115 C 596.627 623.195 651.704 608.48 707.754 595.852 L 701.569 587.668 C 734.128 570.562 765.819 548.254 797.864 529.993 C 799.934 528.813 801.598 529.096 803.745 529.574 C 814.255 531.295 830.398 536.832 841.478 539.458 C 862.248 544.381 883.262 549.742 904.249 553.631 C 1013.88 573.946 1106.58 558.105 1212.17 528.711 z" fill="rgb(192,131,223)" transform="translate(0,0)"/>
<path d="M 1025.16 738.947 C 1026.07 748.737 1025.71 759.155 1025.62 769.033 L 1245.02 769.024 C 1238.71 775.239 1224.3 790.205 1218.15 795.25 C 1182.53 831.456 1144.62 865.425 1109.35 901.065 L 1040.77 966.745 C 1029.69 977.058 1018.37 988.39 1007.33 998.394 C 999.214 1006.57 990.903 1014.55 982.402 1022.32 L 960.009 998.292 C 949.848 987.772 939.788 977.154 929.832 966.441 C 910.596 947.46 886.329 921.334 867.893 901.41 C 859.055 893.641 838.221 865.459 829.983 865.638 C 821.872 865.814 788.723 894.403 779.766 900.914 C 750.597 901.012 475.004 902.929 468.076 900.451 C 448.394 898.177 420.586 905.06 404.753 890.6 C 384.971 873.095 386.068 822.035 403.377 803.668 C 418.009 788.141 458.937 795.17 479.959 794.577 C 468.485 785.608 467.611 779.587 477.455 769.142 L 990.815 769.028 C 1001.18 769.453 1014.3 769.126 1024.87 769.154 C 1024.83 759.019 1024.73 749.084 1025.16 738.947 z" fill="rgb(192,131,223)" transform="translate(0,0)"/>
<path d="M 1025.16 738.947 C 1026.07 748.737 1025.71 759.155 1025.62 769.033 L 1245.02 769.024 C 1238.71 775.239 1224.3 790.205 1218.15 795.25 C 1209.29 793.658 1166.13 794.455 1153.46 794.409 L 993.377 794.284 L 651.568 794.097 C 595.462 794.141 535.817 792.962 479.959 794.577 C 468.485 785.608 467.611 779.587 477.455 769.142 L 990.815 769.028 C 1001.18 769.453 1014.3 769.126 1024.87 769.154 C 1024.83 759.019 1024.73 749.084 1025.16 738.947 z" fill="rgb(135,57,173)" transform="translate(0,0)"/>
<path d="M 867.893 901.41 C 945.699 899.521 1031.09 900.933 1109.35 901.065 L 1040.77 966.745 C 1029.69 977.058 1018.37 988.39 1007.33 998.394 C 999.214 1006.57 990.903 1014.55 982.402 1022.32 L 960.009 998.292 C 949.848 987.772 939.788 977.154 929.832 966.441 C 910.596 947.46 886.329 921.334 867.893 901.41 z" fill="rgb(135,57,173)" transform="translate(0,0)"/>
<path d="M 929.832 966.441 C 962.79 965.901 1008.66 965.079 1040.77 966.745 C 1029.69 977.058 1018.37 988.39 1007.33 998.394 C 999.214 1006.57 990.903 1014.55 982.402 1022.32 L 960.009 998.292 C 949.848 987.772 939.788 977.154 929.832 966.441 z" fill="rgb(86,17,113)" transform="translate(0,0)"/>
<path d="M 960.009 998.292 C 971.978 997.154 995.983 996.561 1007.33 998.394 C 999.214 1006.57 990.903 1014.55 982.402 1022.32 L 960.009 998.292 z" fill="rgb(135,57,173)" transform="translate(0,0)"/>
<path d="M 1212.17 528.711 C 1222.27 529.685 1298.6 579.027 1314.69 587.105 C 1344.94 593.547 1376.51 603.991 1406.71 610.76 C 1353.55 664.257 1299.65 717.017 1245.02 769.024 L 1025.62 769.033 C 1025.71 759.155 1026.07 748.737 1025.16 738.947 L 1024.97 689.038 C 1039.22 675.687 1061.43 658.307 1076.85 645.217 C 1107.73 617.513 1142.17 590.742 1173.44 563.297 C 1181.96 555.827 1206.82 536.128 1212.17 528.711 z" fill="rgb(192,131,223)" transform="translate(0,0)"/>
<path d="M 1212.17 528.711 C 1222.27 529.685 1298.6 579.027 1314.69 587.105 C 1307.27 598.808 1283.85 624.253 1273.58 636.075 L 1194.83 726.859 C 1157.33 699.232 1115.23 672.161 1076.85 645.217 C 1107.73 617.513 1142.17 590.742 1173.44 563.297 C 1181.96 555.827 1206.82 536.128 1212.17 528.711 z" fill="rgb(135,57,173)" transform="translate(0,0)"/>
<path d="M 803.745 529.574 C 814.255 531.295 830.398 536.832 841.478 539.458 C 862.248 544.381 883.262 549.742 904.249 553.631 C 1013.88 573.946 1106.58 558.105 1212.17 528.711 C 1206.82 536.128 1181.96 555.827 1173.44 563.297 C 1142.17 590.742 1107.73 617.513 1076.85 645.217 C 1061.43 658.307 1039.22 675.687 1024.97 689.038 L 1025.16 738.947 C 1024.73 749.084 1024.83 759.019 1024.87 769.154 C 1014.3 769.126 1001.18 769.453 990.815 769.028 L 991.056 688.562 L 938.669 644.309 C 931.095 637.043 920.064 628.426 911.791 621.269 L 833.757 555.058 C 825.768 548.246 809.412 536.45 803.745 529.574 z" fill="rgb(86,17,113)" transform="translate(0,0)"/>
<path d="M 701.569 587.668 C 734.128 570.562 765.819 548.254 797.864 529.993 C 799.934 528.813 801.598 529.096 803.745 529.574 C 809.412 536.45 825.768 548.246 833.757 555.058 L 911.791 621.269 C 920.064 628.426 931.095 637.043 938.669 644.309 C 932.597 649.185 925.849 653.453 919.561 658.074 C 887.358 681.74 852.51 703.25 820.685 727.323 C 810.262 716.509 794.172 696.549 784.02 684.731 L 707.754 595.852 L 701.569 587.668 z" fill="rgb(135,57,173)" transform="translate(0,0)"/>
</svg>