<?xml version="1.0" encoding="UTF-8"?>
<svg width="300" height="300" viewBox="0 0 300 300" fill="none" xmlns="http://www.w3.org/2000/svg">
  <!-- Wardrobe shelving -->
  <rect x="30" y="30" width="240" height="240" rx="20" fill="#F3F4F6"/>
  
  <!-- Shelves and dividers -->
  <rect x="30" y="30" width="60" height="240" rx="5" fill="#FFFFFF"/>
  <rect x="95" y="30" width="110" height="240" rx="5" fill="#FFFFFF"/>
  <rect x="210" y="30" width="60" height="240" rx="5" fill="#FFFFFF"/>
  
  <!-- Shelf lines -->
  <line x1="30" y1="90" x2="90" y2="90" stroke="#E5E7EB" stroke-width="2"/>
  <line x1="30" y1="150" x2="90" y2="150" stroke="#E5E7EB" stroke-width="2"/>
  <line x1="30" y1="210" x2="90" y2="210" stroke="#E5E7EB" stroke-width="2"/>
  
  <line x1="210" y1="90" x2="270" y2="90" stroke="#E5E7EB" stroke-width="2"/>
  <line x1="210" y1="150" x2="270" y2="150" stroke="#E5E7EB" stroke-width="2"/>
  <line x1="210" y1="210" x2="270" y2="210" stroke="#E5E7EB" stroke-width="2"/>
  
  <!-- Hanging rod -->
  <line x1="100" y1="60" x2="200" y2="60" stroke="#D1D5DB" stroke-width="3"/>
  
  <!-- Clothes on hangers -->
  <!-- Navy dress -->
  <path d="M120 60 L115 150 L125 150 Z" fill="#1E3A8A"/>
  <!-- Gray dress -->
  <path d="M140 60 L135 140 L145 140 Z" fill="#4B5563"/>
  <!-- Green shirt -->
  <path d="M160 60 L155 120 L165 120 Z" fill="#10B981"/>
  <!-- White shirt -->
  <path d="M180 60 L175 130 L185 130 Z" fill="#FFFFFF" stroke="#E5E7EB"/>
  
  <!-- Hangers -->
  <line x1="115" y1="60" x2="125" y2="60" stroke="#D1D5DB" stroke-width="1"/>
  <line x1="135" y1="60" x2="145" y2="60" stroke="#D1D5DB" stroke-width="1"/>
  <line x1="155" y1="60" x2="165" y2="60" stroke="#D1D5DB" stroke-width="1"/>
  <line x1="175" y1="60" x2="185" y2="60" stroke="#D1D5DB" stroke-width="1"/>
  
  <!-- Shoes -->
  <ellipse cx="140" cy="240" rx="10" ry="5" fill="#374151"/>
  <ellipse cx="160" cy="240" rx="10" ry="5" fill="#374151"/>
  
  <!-- Folded clothes on shelves -->
  <!-- Top left shelf -->
  <rect x="40" y="50" width="40" height="10" rx="2" fill="#374151"/>
  <rect x="40" y="65" width="40" height="10" rx="2" fill="#FCA5A5"/>
  
  <!-- Middle left shelf -->
  <rect x="40" y="110" width="40" height="10" rx="2" fill="#FEF3C7"/>
  <rect x="40" y="125" width="40" height="10" rx="2" fill="#FEF3C7"/>
  
  <!-- Bottom left shelf -->
  <rect x="40" y="170" width="40" height="10" rx="2" fill="#FEF3C7"/>
  <rect x="40" y="185" width="40" height="10" rx="2" fill="#FCA5A5"/>
  
  <!-- Top right shelf -->
  <rect x="220" y="50" width="40" height="10" rx="2" fill="#1E3A8A"/>
  
  <!-- Middle right shelf -->
  <rect x="220" y="110" width="40" height="10" rx="2" fill="#FCA5A5"/>
  <rect x="220" y="125" width="40" height="10" rx="2" fill="#FCA5A5"/>
  
  <!-- Bottom right shelf -->
  <rect x="220" y="170" width="40" height="10" rx="2" fill="#FEF3C7"/>
  <rect x="220" y="185" width="40" height="10" rx="2" fill="#FEF3C7"/>
</svg>
